# xmcd
#
# Track frame offsets:
#	150
#	16370
#	36820
#	46870
#	66825
#	83995
#	116730
#
# Disc length: 1888 seconds
#
# Revision: 2
# Processed by: cddbd v1.5.1PL0 Copyright (c) Steve Scherf et al.
# Submitted via: EasyCDDAExtractor 7.1.3.1
#
DISCID=55075e07
DTITLE=Ozzy Osbourne - Joe Louis Arena Detroit 04-04-86 Disc 2
DYEAR=1986
DGENRE=Hard Rock
TTITLE0=Secret Loser
TTITLE1=Randy Castillo's Drum Solo
TTITLE2=Secret Loser Reprise
TTITLE3=The Ultimate Sin
TTITLE4=Iron Man
TTITLE5=Crazy Train
TTITLE6=Paranoid
EXTD=
EXTT0=
EXTT1=
EXTT2=
EXTT3=
EXTT4=
EXTT5=
EXTT6=
PLAYORDER=
